<svg version="1.0" xmlns="http://www.w3.org/2000/svg"
 viewBox="295 280 415 410"
 preserveAspectRatio="xMidYMid meet">
<g transform="translate(0,1024) scale(0.1,-0.1)"
fill="#c1121f" stroke="none">
<path d="M3862 7244 c-120 -32 -224 -100 -305 -199 -60 -74 -91 -137 -118
-246 -47 -184 10 -388 150 -543 50 -55 159 -123 236 -147 l75 -24 0 -452 0
-453 43 0 c23 -1 78 -7 122 -15 44 -8 81 -15 83 -15 1 0 2 211 2 469 l0 469
68 21 c112 34 240 128 303 224 6 8 236 -85 454 -183 22 -10 148 -63 280 -118
132 -55 293 -123 359 -151 65 -28 120 -51 122 -51 2 0 4 9 4 20 0 11 22 61 48
113 l48 93 -46 19 c-25 10 -148 62 -275 116 -126 53 -349 147 -495 209 -146
61 -295 125 -332 142 l-68 31 0 76 c-1 284 -171 516 -436 591 -83 24 -242 26
-322 4z"/>
<path d="M6319 6247 c-175 -53 -324 -179 -408 -345 -59 -116 -79 -322 -45
-456 48 -191 181 -356 355 -440 108 -52 209 -74 319 -71 82 2 207 33 273 66
269 136 417 433 363 729 -42 232 -215 431 -446 511 -52 19 -91 23 -200 26
-118 2 -145 0 -211 -20z"/>
<path d="M5169 5147 l-557 -281 29 -43 c25 -35 100 -181 111 -215 2 -6 257
117 567 272 l562 281 -17 27 c-28 43 -77 133 -103 190 -14 28 -27 52 -30 52
-3 -1 -256 -128 -562 -283z"/>
<path d="M3751 5005 c-93 -17 -148 -37 -233 -87 -169 -97 -300 -271 -354 -469
-27 -99 -25 -272 5 -374 73 -252 249 -441 482 -519 273 -92 577 -24 777 173
150 148 222 325 222 549 0 233 -105 442 -294 587 -170 130 -386 180 -605 140z"/>
</g>
</svg>
